<svg xmlns="http://www.w3.org/2000/svg" viewBox="0 0 480 640" role="img">
  <rect width="480" height="640" fill="#EFECE7"/>
  <rect x="36" y="36" width="408" height="568" fill="#F9F8F6"/>
  <rect x="36" y="36" width="408" height="568" fill="none" stroke="#2B2523" stroke-width="0.6"/>
  <rect x="92" y="88" width="168" height="252" fill="#FFFFFF" stroke="#2B2523" stroke-width="0.8"/>
  <rect x="108" y="104" width="136" height="220" fill="none" stroke="#7A8B78" stroke-width="0.4"/>
  <circle cx="176" cy="198" r="28" fill="none" stroke="#2B2523" stroke-width="0.7"/>
  <path d="M176 170 V226 M148 198 H204" stroke="#7A8B78" stroke-width="0.5"/>
  <rect x="272" y="160" width="92" height="8" fill="#7A8B78" opacity="0.55"/>
  <rect x="272" y="184" width="64" fill="#2B2523" height="4" opacity="0.2"/>
  <path d="M318 320 C318 280 348 268 348 236" fill="none" stroke="#7A8B78" stroke-width="0.9"/>
  <ellipse cx="348" cy="228" rx="18" ry="26" fill="none" stroke="#7A8B78" stroke-width="0.8"/>
  <ellipse cx="336" cy="236" rx="12" ry="18" fill="none" stroke="#7A8B78" stroke-width="0.6"/>
  <rect x="92" y="420" width="296" height="1" fill="#2B2523" opacity="0.25"/>
  <circle cx="120" cy="468" r="22" fill="none" stroke="#2B2523" stroke-width="0.7"/>
  <rect x="158" y="456" width="70" height="48" fill="none" stroke="#7A8B78" stroke-width="0.6"/>
</svg>
